<svg width="97" height="98" viewBox="0 0 97 98" fill="none" xmlns="http://www.w3.org/2000/svg">
<path d="M37.0003 62.4558L48.1633 51.32L59.3262 62.4558L60.8812 60.9007L49.746 49.7372L60.8812 38.5736L59.3262 37.0186L48.1633 48.1543L37.0003 37.0186L35.4453 38.5736L46.5805 49.7372L35.4453 60.9007L37.0003 62.4558Z" fill="#C0A177"/>
<path d="M94.6306 46.1924C94.4808 45.769 94.3881 45.3287 94.2687 44.8777C94.1324 44.4294 94.0174 43.9668 93.9176 43.4927C93.7179 42.5462 93.5789 41.5533 93.4488 40.5452C93.2393 39.5541 93.0032 38.5541 92.7465 37.5799C92.6164 37.0933 92.4755 36.6138 92.3214 36.1503C92.1476 35.6913 91.9123 35.2626 91.6841 34.8455C91.4934 34.4471 92.2287 34.7804 91.7634 33.8829C91.2421 33.0995 90.874 32.1262 90.3081 31.1538C89.7724 30.1698 89.2591 29.0949 88.7707 27.9745C87.6192 25.8301 86.5524 23.4905 85.367 21.5662L85.6505 21.6936C85.2022 20.953 84.2477 20.3754 83.6764 19.6838C83.7477 19.6134 83.9794 19.8068 83.9438 19.5626C83.5605 19.5884 82.7379 18.4404 82.3137 18.3094C82.1604 17.9654 82.36 17.829 82.1426 17.395L81.5463 17.2479C80.7977 16.9761 80.1284 16.4324 79.4929 15.7452C78.8388 15.083 78.1971 14.2862 77.3014 13.8441C77.4262 13.8388 77.6204 13.9056 77.5456 13.7532C76.8388 13.3789 76.1196 12.9511 75.3941 12.4867C74.6624 12.033 73.9566 11.4911 73.1491 11.0821C71.5725 10.2148 70.028 9.20234 68.3882 8.59982C68.5656 8.55169 68.7821 8.4082 68.6574 8.19697C68.3401 8.44654 67.3348 8.06417 66.4712 7.72548C66.2537 7.15951 64.8625 7.45364 63.9277 6.88055L64.0426 6.83421C63.1585 6.92512 62.9945 6.21208 62.2343 6.43046L61.8458 5.9768C61.3565 6.37431 60.7968 5.42242 60.0775 5.50798L60.0695 5.61761C59.4323 5.58552 59.1819 5.24951 58.5972 5.19068L58.558 5.1176C57.2194 4.87517 56.4796 4.53381 56.4395 4.92687C56.0269 4.53291 57.771 4.97945 57.1222 4.39923C52.6081 3.96518 48.0085 3.72453 43.496 4.08905C42.9711 3.99101 42.6413 3.99993 42.5086 3.86C42.0701 4.01062 40.8268 4.19244 40.4552 4.46072C40.6031 4.43042 40.1316 4.2985 39.8901 4.31544C39.0434 4.29761 39.0791 4.86001 38.1718 4.91972C38.4962 4.72453 38.588 4.5641 38.4392 4.44556C37.7547 4.95002 36.7476 5.1577 35.8911 5.4848C36.0097 5.3823 36.2129 5.28961 36.1469 5.17285C35.2806 5.77713 34.3466 5.51955 33.6034 6.07482L33.8387 5.73791C32.4181 5.95271 33.6052 6.34844 32.4092 6.6069C32.6587 6.43667 32.5304 6.38498 32.5473 6.27625C31.6222 7.06235 29.853 7.54276 28.9192 8.22637C28.9664 8.16755 28.9228 8.11674 28.9228 8.11674C28.38 8.40818 27.8052 8.6622 27.2232 8.9394C26.6359 9.20412 26.0512 9.51338 25.5325 9.96527C25.0601 10.1293 25.3854 9.3797 24.307 10.1364C24.5922 10.5188 22.5157 11.4537 23.4613 11.5063C23.2135 11.6311 22.9301 11.7755 22.6333 11.927C22.3561 12.107 22.0656 12.2951 21.7867 12.476C21.2323 12.8494 20.7296 13.2184 20.4837 13.5036C20.7751 13.0607 19.6949 13.3691 20.4159 12.7808L19.6771 12.9751C19.6423 12.7576 20.301 12.5901 19.9739 12.5304C19.6138 12.8396 18.6076 13.7746 18.2609 14.0117C17.802 14.8219 17.5774 15.7586 16.597 16.7292C16.9535 16.1552 15.9606 16.6017 16.2343 16.2425C16.2343 16.2425 16.032 16.7336 15.8306 17.2229C15.6416 17.7203 15.4945 18.2435 15.4945 18.2435C15.2031 18.5973 15.1576 18.0581 14.8012 18.6356C14.9161 18.6954 14.778 18.9618 14.7183 19.1802C14.5623 19.272 13.5338 20.6588 13.0392 20.5091C12.762 20.5412 13.4696 19.8897 12.9982 20.1606C12.4171 20.7881 12.5704 20.9628 12.0499 21.6348L11.9911 21.6089C11.5972 22.0207 11.1578 23.0555 11.7309 22.7204C11.976 22.4191 11.418 22.6705 11.8717 22.2908C11.8521 22.7712 11.3289 23.5956 10.8289 24.2712C10.9386 23.9994 10.8165 23.9557 10.7764 23.7872C10.3824 24.8978 9.94037 26.0297 9.39761 27.1616C9.57942 27.2917 9.29244 26.5573 9.49119 26.4566C8.95288 27.076 8.56608 27.8238 8.29426 28.5832C8.02866 29.347 7.76487 30.0645 7.26933 30.5726C7.32905 30.3569 7.60534 30.6011 7.54294 30.5868C7.18111 31.2713 6.90303 31.1091 6.79162 31.6145C6.6009 31.5851 6.54743 32.2045 6.44494 32.7232C6.4797 33.0271 6.31304 32.8168 6.45029 32.381C6.40038 32.7544 6.19361 33.6475 5.89683 34.627C5.59292 35.6048 5.19543 36.6689 4.89775 37.4551C5.0252 37.4605 5.0858 38.5692 4.97796 38.9311L4.7311 38.7154C4.47442 39.0131 4.43609 39.9659 4.17497 39.973C4.31578 40.8536 4.67228 36.8296 4.66069 37.9748C4.35142 38.1949 4.72575 39.5871 4.40045 39.26C4.22131 40.0167 4.3247 40.7957 3.97889 41.4784C4.05643 41.2761 3.67587 40.7796 3.60191 41.4044C3.48694 42.5069 3.69103 41.7405 3.65271 42.6398L3.68747 43.2111C3.96374 43.2886 3.5012 44.1746 3.87819 43.8153C3.62864 43.9205 3.77124 45.4 3.33632 45.2414L2.98072 45.0524C2.97091 45.5329 3.32829 45.8715 3.47 46.2557C3.43167 46.3145 3.35146 46.433 3.29264 46.4054C3.85591 46.5204 3.18926 47.5364 3.59924 48.1175C3.47803 48.6086 3.43436 49.2379 3.3898 49.8012C3.39515 50.3645 3.37732 50.8645 3.21066 51.1042C3.42188 51.8654 3.66163 52.5445 3.5823 53.4206C3.52081 53.2521 3.49318 53.0159 3.36752 52.9749C3.22848 53.5347 3.38445 53.6594 3.50031 54.1488C3.37286 54.048 3.31671 55.2664 3.20888 55.9046C3.49408 56.639 3.75609 56.3324 3.95395 56.3814C3.53239 57.1559 4.57246 58.4403 4.31936 59.369C4.16251 59.1364 3.79978 58.3432 3.79175 58.992C3.421 59.7942 4.5493 60.2684 4.56623 61.4163L4.94857 61.0304C4.79439 61.5874 5.61522 62.5447 5.13128 62.5679C5.35498 62.8896 5.38528 63.87 5.77563 63.6133C5.90843 64.5304 6.34781 65.5617 6.70163 66.5215C7.02516 67.4966 7.47699 68.3166 7.32728 69.0145C7.50998 69.2204 7.72744 69.8505 7.87807 69.6241C7.9155 69.1197 7.4485 69.1518 7.53406 68.9289C7.64903 69.1357 7.78361 69.1286 7.85133 69.1232C8.00462 69.6812 8.17216 70.1045 7.59821 69.7837C7.92263 71.0627 8.79959 70.6464 9.49921 72.0886C9.29868 72.1207 9.30136 72.2615 9.57229 72.651L10.312 73.2491C10.787 74.1769 10.2594 73.9862 10.0028 74.1778C10.3388 74.6323 10.6837 75.233 11.0509 75.2892L11.1337 76.0673C11.0714 75.4995 11.5678 76.3275 11.7906 76.4924L11.5687 76.3267C11.5223 76.4889 11.9813 76.9631 12.2103 77.2019C12.32 77.0201 11.9884 76.4416 11.8182 76.1199C12.1034 76.2669 12.3422 76.6413 12.6996 76.8427C12.3761 76.9318 13.0686 77.7082 13.3092 78.0843C13.557 78.5415 13.8992 78.3401 13.9812 78.4649C13.8654 78.5789 14.5195 79.0959 14.0793 78.9506C13.9233 78.8543 13.9322 78.5558 13.6292 78.4346C13.7638 78.7608 13.5231 78.915 14.1506 79.3C14.622 79.5879 14.524 78.7937 15.0436 79.6592C14.8101 79.5175 14.6844 79.5656 14.4652 79.4889L14.975 80.2911L15.2102 80.1271C15.2423 80.2688 15.1657 80.2216 15.1773 80.2911C15.5837 80.292 16.2031 81.284 16.5827 81.2038C16.9392 81.5068 17.1718 82.0086 17.4811 82.3375L17.4009 82.2983C17.6923 82.7893 18.3109 83.202 18.777 83.366L18.7181 83.3963C18.9267 83.612 19.473 84.063 19.8643 84.1744C20.333 84.7912 19.3937 85.162 20.2938 85.3866C20.9239 85.8456 21.579 85.6958 21.4399 85.3652C21.9328 85.8536 22.562 86.2395 23.1573 86.6406C23.7848 86.998 24.3971 87.3474 24.8248 87.8697C25.0539 87.875 24.9844 87.7484 25.3667 87.9017C26.9941 89.1388 29.2677 89.5568 30.4619 90.802C29.8853 90.6567 30.3122 91.0444 30.2596 91.2004C30.7934 91.1879 30.7007 91.6683 31.0287 91.3332C31.084 91.0729 31.1678 90.9936 30.6874 90.6763C31.8576 90.9865 33.566 91.589 34.115 92.0551C33.8387 91.8261 34.1069 91.8421 34.3752 91.8582C34.1622 92.2227 34.9812 92.597 35.6809 92.5953L35.8422 92.3778L36.1951 92.7334C36.4669 92.7209 36.6069 92.2976 37.188 92.6951C37.1969 92.7976 37.2111 92.9019 37.3118 93.0017C38.0426 92.9536 39.0337 92.9366 39.7397 93.2218L40.2815 93.6728C40.6086 93.6817 41.1763 93.5463 40.6371 93.3582C41.8652 93.7673 42.6816 93.9215 43.0506 94.2958C45.3481 93.7325 48.488 93.8894 51.0422 93.7094L50.9798 93.9001C51.6785 94.0409 51.3122 93.5561 51.7988 93.6621C51.5894 93.8511 52.3559 94.0222 51.8318 94.2682C52.8451 94.4367 53.0724 93.8342 53.6918 93.6603C53.7569 93.4019 53.2025 93.8938 53.2881 93.5667C53.3843 93.4634 54.6552 93.5498 54.7506 93.1594C55.0135 93.2664 54.8683 93.5658 54.7586 93.7343L55.3272 93.466C56.1374 93.7815 53.7711 94.4883 54.6178 94.8992L55.1739 94.7548C55.7773 95.056 53.7355 95.4188 55.1838 95.3323C55.78 95.056 56.2087 94.4455 55.6374 94.3662C56.8842 94.0569 56.0732 93.4384 57.4047 93.1995C57.607 93.2583 57.3486 93.3448 57.0741 93.4321C56.7969 93.499 56.5063 93.5774 56.665 93.7084C57.369 93.9374 57.8869 93.2512 58.4644 93.2316C57.8191 93.253 58.2549 92.7521 58.6284 92.5863C59.3351 92.5854 58.2799 93.04 59.2326 92.8332C59.3378 92.5836 60.1559 92.2084 59.3734 92.2556C59.5829 91.6995 60.3841 92.1353 60.7869 91.6433C61.196 91.8911 60.041 92.6505 61.1309 92.548C60.8859 92.31 62.2503 91.703 61.5668 91.4232C61.9847 91.3706 62.1095 91.6005 61.8858 91.8982C62.5186 91.8813 63.0462 90.8313 63.4526 91.3795L63.5284 90.9927C63.7414 91.031 64.0212 91.0167 64.3768 91.0809C64.6273 90.9927 64.9838 90.7413 65.2957 90.5738C65.5987 90.3857 65.85 90.2663 65.9329 90.5123C66.0657 90.3893 67.161 89.8866 66.5933 89.7689C65.8358 89.8964 65.9249 90.3786 65.3625 90.1219C65.9882 90.2493 66.3064 89.6094 66.6334 89.3064L66.7787 89.4543C66.9757 89.2743 67.5238 89.0568 67.571 88.7992C67.4463 88.9846 67.5969 89.0613 67.801 89.0149L67.9061 88.6317C68.7644 88.0488 68.3722 89.0033 69.2349 88.4695C69.2465 88.4891 68.6539 89.0176 68.6539 89.0176C68.7751 88.8875 69.2438 89.0265 69.6093 88.6727C69.6396 88.334 69.7804 87.8652 69.8116 87.5969C70.2331 87.1994 70.185 87.7315 70.5165 87.1994L70.0576 87.8634C70.0068 87.9998 70.7091 87.9953 71.365 87.5889C71.7384 87.252 72.1689 86.5283 71.4327 86.8001C71.7563 86.5996 72.3044 86.4614 72.1537 86.7859C72.8436 86.2582 71.8971 86.5978 72.4398 86.0719C72.799 86.0639 73.6947 85.6914 74.3195 85.5621L73.9531 86.4071L74.3783 86.0924C74.0423 86.8028 74.8212 86.1103 74.7374 86.6557C75.0654 86.4855 75.3444 86.1129 75.5654 85.8224C74.3462 85.9614 75.9994 84.4427 75.3996 84.1869C76.4388 83.2341 76.9762 84.6869 77.5243 83.0264C77.2472 83.0799 77.4798 82.2867 76.9263 83.0113C77.6215 82.4632 76.9914 82.186 77.9138 81.6646C77.5003 82.3544 78.9209 81.5238 78.3184 82.5229C78.2471 82.3339 77.7578 82.8402 77.6651 82.997C78.0813 82.9088 77.986 83.4721 78.6704 82.85C79.051 82.4311 79.616 81.9043 79.3281 81.7688C79.0857 81.5532 78.7185 82.3678 78.7587 81.8918C79.51 81.0808 79.9752 81.2751 79.8718 80.5326C79.4413 81.0888 79.0724 80.9649 78.9235 80.7956C78.9414 80.8125 79.3772 80.1182 79.3772 80.1182L79.4271 80.3829C80.403 79.5362 79.4004 79.8321 80.2756 78.9533L80.9832 78.8053C81.0536 79.2706 79.6401 80.0424 80.223 80.2849C80.7943 79.693 80.7506 79.2893 81.3861 78.8223C81.3085 78.9836 81.1615 79.1663 81.0875 79.3285C81.2969 79.128 82.0928 79.4248 82.5375 78.2501C82.7782 77.6609 82.4734 77.9907 82.3156 77.8401C83.0491 76.7429 83.1026 76.2928 83.5776 75.5985C83.8245 75.9942 84.5063 74.4291 84.3084 75.4345C83.8405 75.6342 82.7309 77.1609 82.771 77.8008C83.1159 77.7688 82.9457 77.9666 82.7184 78.2429C82.4671 78.4996 82.1472 78.8214 82.2479 79.0994C82.9849 78.3187 83.3316 78.6689 83.6926 78.7376C83.8922 78.5085 83.9599 78.1859 84.0259 78.0094C83.8556 77.7144 83.6248 78.0326 83.3601 77.8481C84.1444 76.9399 84.7005 75.906 84.8422 75.21C85.2076 74.9801 85.3903 75.2546 85.1301 75.653C85.9233 74.4631 86.6541 73.1244 87.4723 72.029C86.5793 72.5263 88.147 70.6769 87.4634 70.9826C87.0009 71.5522 86.3583 71.8873 86.3663 71.4416C86.6257 71.0789 86.5526 71.5646 86.7442 71.4586C86.8066 70.848 87.5873 70.9104 87.4331 70.1965C87.024 71.4292 87.8725 70.7152 88.1247 71.1154C88.3359 70.1582 88.3582 71.2857 88.7646 70.4398C88.9776 69.4844 89.3207 68.3712 89.6933 67.3988C90.507 66.3168 90.8447 64.2811 91.2342 63.1884C91.5818 62.6555 91.9089 63.1893 92.1513 62.5583C92.3393 61.7918 91.5363 62.9888 92.0265 61.9166L92.0853 62.0494C92.0702 61.6848 92.9168 60.0449 92.3705 59.569L92.7591 60.0253C92.8562 59.823 92.7974 59.6019 92.7921 59.4175C92.9489 59.4433 93.1548 59.2249 93.1673 59.5939C93.7163 58.9656 93.3767 58.077 93.506 57.3043L93.1441 57.7553C93.1138 56.3916 93.5594 55.5511 93.6191 54.2508L93.8999 54.3177L93.7698 53.5289C94.0327 53.7419 94.2466 53.0396 94.038 52.6144C94.038 52.6144 94.1851 53.1332 94.333 53.6519C94.407 53.9148 94.4801 54.1769 94.5354 54.3738C94.5968 54.5717 94.6093 54.7018 94.6093 54.7018C94.3705 55.2464 94.3437 54.053 94.022 54.3774C93.7537 54.651 93.6334 55.8471 93.8785 56.0806C93.9792 55.6261 93.9222 55.594 93.8749 55.2268C94.2903 55.1207 94.1673 55.8186 94.3758 56.2027C94.3972 55.9576 94.5683 55.6261 94.4525 55.5583C94.571 56.0592 94.5264 56.5495 94.4141 57.3507C94.3455 56.7856 94.1281 57.6047 94.0487 57.381C94.3811 57.4987 94.3731 58.2857 94.1191 59.2545C93.5505 59.8588 93.9043 61.1288 93.506 62.2341C93.2849 61.6851 93.1593 61.038 93.194 60.333C92.8438 60.9846 93.0051 61.1102 92.6539 61.7591C92.8215 62.1628 93.1468 62.5113 93.0612 63.4775L92.801 63.4507C92.6709 64.3055 93.0078 64.4195 92.5711 65.4329C92.1878 66.2966 91.8305 67.1798 91.5034 68.0149C91.1005 68.817 90.7244 69.5702 90.4036 70.211L90.1478 70.1468C90.2244 70.6245 89.9802 71.2493 89.6879 71.8848C89.3938 72.5212 88.9491 73.113 88.7896 73.6415C88.2067 74.3608 87.7442 75.2396 87.3164 76.0168C86.8396 76.7592 86.3708 77.3777 85.9162 77.6228C85.4715 78.2984 85.0411 78.9544 84.6168 79.5997C84.1578 80.2209 83.6588 80.7958 83.1721 81.3876C82.6802 81.975 82.1766 82.5605 81.6517 83.1497C81.0857 83.6978 80.4762 84.229 79.8416 84.7789L80.0029 84.1238C79.7489 84.7299 79.5698 84.2246 79.1749 84.6577C79.8737 84.4304 78.8354 85.4955 78.6732 85.9536C77.3551 86.7023 75.9789 88.0392 75.0672 89.0768L74.8791 88.8941C74.0307 90.0439 72.3899 90.4966 70.9373 91.2988C70.7261 91.3157 70.3357 91.2248 69.9052 91.4663C69.284 92.2301 68.8411 92.412 67.7458 93.2293C66.8857 93.707 65.3333 94.1125 64.3538 94.3068C63.5374 94.7391 62.7175 95.2079 61.8281 95.4798C60.9431 95.7632 60.0394 96.0163 59.1295 96.2614L57.7614 96.626L56.3595 96.8666C55.4228 97.0342 54.4853 97.2204 53.5432 97.4522L53.2366 97.1902C52.332 97.4433 51.3507 97.5476 50.3499 97.6492C49.3482 97.7142 48.325 97.855 47.3207 97.7454C45.3119 97.5841 43.3725 97.5547 41.7818 97.3969L42.1507 96.9263C41.198 96.6197 39.8995 96.7222 40.0848 97.1233C39.6036 96.9664 38.9735 96.9415 38.396 96.872C37.8274 96.7579 37.3087 96.6206 37.0502 96.3336C36.0841 95.986 35.7793 96.2561 34.9317 96.109C33.9531 95.7846 33.3079 95.4994 32.6627 95.2543C32.0165 95.0163 31.3712 94.8184 30.4435 94.5297L30.8829 94.7249C31.1244 94.6919 31.2189 94.4896 30.7804 94.2944C30.4203 94.232 29.8027 93.9913 29.3544 93.8202C28.9114 93.6348 28.6022 93.5796 28.8009 94.0199C27.9382 93.4067 26.8242 92.9521 25.7128 92.478C24.6015 92.0127 23.5917 91.3496 22.8467 90.6428C22.9047 90.8763 22.4519 90.6401 22.2068 90.6232C21.8174 90.387 21.4297 90.1321 21.0571 89.8656C20.706 89.5679 20.3566 89.2711 20.0171 88.9841C19.3344 88.4128 18.6713 87.8994 17.9993 87.575C17.8201 87.3344 18.5465 87.6249 17.9672 87.1686C17.5777 86.9556 17.8175 87.337 17.33 87.0821C16.133 86.2122 15.0707 85.1374 14.0717 84.074C13.1412 82.9385 12.307 81.7763 11.373 80.818C8.0755 77.3617 5.55414 72.9864 3.68441 68.8196L3.82077 68.8169C2.79229 67.5727 3.03025 65.2954 1.92244 64.3845C1.90283 64.0102 1.61675 63.0298 1.9055 63.2267C1.5909 62.6849 1.45453 61.8337 1.29234 60.9282C1.21212 60.4745 1.12389 60.0066 1.00358 59.5521C0.909112 59.0922 0.812857 58.6358 0.637278 58.2205C0.649755 58.3827 0.689862 58.4701 0.771854 58.6448C0.771854 57.7428 0.621232 56.9264 0.465255 56.092C0.387719 55.6758 0.3084 55.2551 0.247798 54.8219C0.200562 54.3879 0.22106 53.9351 0.253145 53.4654C0.315532 53.6508 0.373461 53.9904 0.50001 54.034C0.702321 53.3041 -0.113161 52.3638 0.467926 51.9369C0.441188 51.5269 0.150654 51.6561 0.181843 51.9101C0.10787 49.8629 0.264726 47.7639 0.278096 45.6248C0.243339 44.5517 0.45991 43.4937 0.537442 42.4188C0.681821 41.3546 0.689841 40.2592 0.970571 39.2254C2.08105 36.3411 1.99905 39.2869 2.16394 36.8501C2.32525 36.6933 1.97767 36.6505 2.10601 36.6523C2.14166 36.1799 2.39387 35.8769 2.61669 35.6068C2.86625 35.3448 3.09171 35.1175 3.05071 34.7672C2.60955 34.9 3.00081 34.3011 2.79493 34.2102C3.67547 32.5453 4.06227 32.3126 4.37153 30.8616L4.50343 31.0381C4.77081 29.2876 5.80552 27.5745 6.01586 26.0254C10.6397 17.6572 17.3427 10.7523 25.7032 6.3236C26.7584 5.82627 27.811 5.32982 28.8618 4.83517C29.9322 4.38954 31.0355 4.0241 32.1183 3.61322C32.6637 3.4207 33.202 3.20056 33.7537 3.02765L35.4328 2.58557C36.5575 2.31374 37.6635 1.95188 38.8061 1.76025C41.0956 1.40107 43.3861 0.982149 45.7274 0.981259C48.058 0.788742 50.401 1.05523 52.7494 1.24598C54.8892 2.01248 55.022 2.07131 57.4515 2.21836C57.3392 2.28521 57.1867 2.27986 57.3311 2.38057C57.5406 1.94473 58.9951 2.70501 59.3079 2.3779C60.9843 2.86632 62.634 3.19164 64.2053 3.82088C65.0029 4.10164 65.8024 4.38418 66.6135 4.67028C67.4325 4.94212 68.1963 5.37797 69.0153 5.74785C68.4823 5.54107 68.0866 5.73092 68.7007 5.99562L69.4511 6.05979L69.5037 6.21398C69.9448 6.35748 70.4929 6.39402 70.1231 6.06603C70.6391 6.29953 71.1712 6.50721 71.6693 6.77371L73.1345 7.62756C74.0944 8.22205 75.097 8.75236 75.9936 9.4342L78.6539 11.5055C79.5576 12.1695 80.2982 13.0269 81.1173 13.781C82.7812 15.273 84.1207 17.0661 85.5805 18.7204L87.5242 21.4022C87.8433 21.8505 88.1873 22.2828 88.4912 22.7409L89.3575 24.1465C89.8005 25.1011 90.5366 26.1349 91.1106 27.29C91.7113 28.4326 92.3226 29.5949 92.8529 30.6021C94.9803 37.0505 95.7236 43.0194 96.1621 49.7556C96.1434 49.7609 95.0178 48.8741 94.631 46.1923L94.6306 46.1924Z" fill="#AA9A78"/>
</svg>
