<svg width="105" height="107" viewBox="0 0 105 107" fill="none" xmlns="http://www.w3.org/2000/svg">
<path d="M103.004 49.8904C102.841 49.4288 102.74 48.9488 102.61 48.4571C102.461 47.9683 102.336 47.4639 102.227 46.9469C102.009 45.9149 101.858 44.8324 101.716 43.7333C101.488 42.6527 101.23 41.5624 100.95 40.5003C100.808 39.9697 100.655 39.4469 100.487 38.9416C100.297 38.4411 100.041 37.9737 99.7918 37.5189C99.5838 37.0845 100.386 37.448 99.8783 36.4694C99.3098 35.6152 98.9085 34.554 98.2914 33.4938C97.7073 32.421 97.1476 31.2491 96.6151 30.0274C95.3596 27.6894 94.1963 25.1386 92.9039 23.0404L93.2129 23.1794C92.7241 22.3719 91.6834 21.7422 91.0605 20.9881C91.1382 20.9113 91.3909 21.1222 91.352 20.8559C90.9341 20.8841 90.0372 19.6324 89.5747 19.4896C89.4075 19.1145 89.6252 18.9658 89.3881 18.4926L88.738 18.3322C87.9217 18.0358 87.1919 17.4431 86.499 16.6938C85.7857 15.9718 85.0861 15.1031 84.1094 14.6211C84.2455 14.6152 84.4573 14.6881 84.3757 14.5219C83.6051 14.1138 82.8209 13.6474 82.0299 13.1411C81.2321 12.6464 80.4624 12.0556 79.582 11.6096C77.8629 10.664 76.1788 9.56012 74.3909 8.90319C74.5843 8.85071 74.8204 8.69426 74.6844 8.46396C74.3384 8.73606 73.2422 8.31916 72.3006 7.94989C72.0635 7.33282 70.5466 7.65351 69.5273 7.02867L69.6527 6.97814C68.6887 7.07726 68.5099 6.29984 67.681 6.53794L67.2573 6.0433C66.7238 6.47671 66.1135 5.43886 65.3293 5.53215L65.3205 5.65168C64.6257 5.6167 64.3527 5.25034 63.7152 5.1862L63.6724 5.10652C62.2128 4.8422 61.4063 4.47001 61.3625 4.89856C60.9126 4.46903 62.8143 4.95589 62.1069 4.32328C57.185 3.85004 52.1697 3.58766 47.2495 3.98509C46.6771 3.8782 46.3176 3.88792 46.1728 3.73535C45.6947 3.89958 44.3391 4.09781 43.9339 4.39032C44.0952 4.35728 43.5811 4.21346 43.3177 4.23192C42.3946 4.21248 42.4334 4.82566 41.4442 4.89077C41.7979 4.67795 41.898 4.50303 41.7357 4.3738C40.9894 4.92381 39.8913 5.15024 38.9574 5.50688C39.0867 5.39512 39.3083 5.29406 39.2363 5.16676C38.2918 5.8256 37.2734 5.54476 36.463 6.15017L36.7196 5.78284C35.1706 6.01704 36.465 6.4485 35.1609 6.73031C35.433 6.5447 35.293 6.48834 35.3115 6.36979C34.3028 7.22689 32.3737 7.75067 31.3555 8.49602C31.407 8.43188 31.3594 8.37649 31.3594 8.37649C30.7676 8.69425 30.1408 8.97121 29.5063 9.27344C28.8659 9.56206 28.2284 9.89925 27.6628 10.3919C27.1478 10.5707 27.5025 9.75349 26.3266 10.5785C26.6376 10.9954 24.3734 12.0148 25.4044 12.0721C25.1343 12.2082 24.8253 12.3656 24.5017 12.5308C24.1995 12.7271 23.8826 12.9322 23.5785 13.1294C22.9741 13.5366 22.426 13.9389 22.1578 14.2498C22.4755 13.7669 21.2978 14.1031 22.0839 13.4617L21.2783 13.6736C21.2404 13.4365 21.9586 13.2538 21.6019 13.1887C21.2093 13.5259 20.1122 14.5453 19.7342 14.8038C19.2338 15.6871 18.9889 16.7084 17.9199 17.7666C18.3086 17.1408 17.2261 17.6277 17.5244 17.236C17.5244 17.236 17.3038 17.7715 17.0842 18.305C16.8782 18.8472 16.7178 19.4177 16.7178 19.4177C16.4001 19.8035 16.3505 19.2155 15.9618 19.8453C16.0872 19.9104 15.9365 20.2009 15.8714 20.439C15.7014 20.5391 14.58 22.0512 14.0406 21.8879C13.7384 21.9229 14.51 21.2125 13.9959 21.508C13.3623 22.1921 13.5295 22.3825 12.962 23.1152L12.8978 23.0871C12.4683 23.536 11.9892 24.6642 12.6141 24.2989C12.8813 23.9704 12.273 24.2444 12.7676 23.8305C12.7462 24.3543 12.1758 25.2531 11.6307 25.9897C11.7502 25.6933 11.6171 25.6457 11.5733 25.4621C11.1438 26.6729 10.6618 27.907 10.07 29.1411C10.2682 29.283 9.95533 28.4823 10.172 28.3725C9.58509 29.0479 9.16334 29.8632 8.86695 30.6911C8.57736 31.5239 8.28973 32.3062 7.74942 32.8601C7.81453 32.6249 8.11579 32.8912 8.04775 32.8757C7.65322 33.622 7.35002 33.4451 7.22854 33.9961C7.02058 33.964 6.96228 34.6394 6.85053 35.205C6.88843 35.5363 6.70671 35.307 6.85636 34.8318C6.80195 35.239 6.5765 36.2127 6.25289 37.2807C5.92153 38.3467 5.48812 39.507 5.16355 40.3642C5.30251 40.37 5.36859 41.5789 5.25101 41.9735L4.98183 41.7383C4.70197 42.0629 4.66017 43.1017 4.37545 43.1095C4.52899 44.0696 4.9177 39.6821 4.90506 40.9308C4.56785 41.1708 4.976 42.6887 4.62131 42.332C4.42599 43.1571 4.53872 44.0064 4.16166 44.7508C4.2462 44.5302 3.83126 43.9889 3.75061 44.6701C3.62525 45.8722 3.84779 45.0365 3.80601 46.017L3.8439 46.6399C4.14514 46.7244 3.6408 47.6904 4.05186 47.2987C3.77976 47.4134 3.93525 49.0265 3.46103 48.8536L3.07329 48.6476C3.0626 49.1713 3.45227 49.5406 3.60678 49.9594C3.565 50.0236 3.47754 50.1528 3.4134 50.1227C4.02757 50.248 3.30068 51.3558 3.7477 51.9894C3.61554 52.5249 3.56793 53.211 3.51934 53.8251C3.52517 54.4393 3.50573 54.9844 3.32401 55.2458C3.55432 56.0757 3.81573 56.8162 3.72924 57.7714C3.66218 57.5877 3.63206 57.3302 3.49504 57.2855C3.34344 57.8957 3.5135 58.0318 3.63983 58.5653C3.50087 58.4555 3.43965 59.7839 3.32207 60.4797C3.63304 61.2804 3.91873 60.9461 4.13447 60.9995C3.67481 61.844 4.80886 63.2443 4.5329 64.257C4.36187 64.0033 3.96637 63.1385 3.95761 63.8459C3.55336 64.7205 4.78361 65.2375 4.80207 66.4891L5.21896 66.0683C5.05084 66.6757 5.94585 67.7194 5.41817 67.7446C5.66208 68.0955 5.69513 69.1644 6.12075 68.8845C6.26555 69.8845 6.74463 71.0088 7.13042 72.0554C7.48318 73.1185 7.97584 74.0125 7.8126 74.7734C8.01181 74.9979 8.24892 75.685 8.41316 75.4381C8.45398 74.8881 7.94478 74.9231 8.03806 74.6801C8.16342 74.9056 8.31017 74.8978 8.38401 74.892C8.55115 75.5003 8.73383 75.9619 8.10802 75.6121C8.46175 77.0066 9.41795 76.5527 10.1808 78.1252C9.96214 78.1601 9.96505 78.3137 10.2605 78.7383L11.067 79.3904C11.585 80.402 11.0097 80.194 10.7298 80.403C11.0962 80.8986 11.4723 81.5535 11.8726 81.6148L11.963 82.4631C11.895 81.8441 12.4362 82.7469 12.6792 82.9267L12.4372 82.7459C12.3867 82.9228 12.8872 83.4398 13.1369 83.7002C13.2564 83.5019 12.8949 82.8713 12.7093 82.5204C13.0203 82.6808 13.2807 83.0889 13.6704 83.3085C13.3176 83.4057 14.0727 84.2521 14.3351 84.6622C14.6052 85.1607 14.9784 84.9411 15.0678 85.0772C14.9415 85.2016 15.6547 85.7652 15.1747 85.6068C15.0046 85.5018 15.0143 85.1763 14.6839 85.0441C14.8307 85.3998 14.5683 85.5679 15.2524 85.9877C15.7665 86.3016 15.6596 85.4357 16.2261 86.3793C15.9716 86.2248 15.8345 86.2773 15.5955 86.1937L16.1513 87.0683L16.4078 86.8895C16.4428 87.044 16.3593 86.9925 16.3719 87.0683C16.815 87.0693 17.4904 88.1509 17.9044 88.0634C18.2931 88.3938 18.5467 88.9409 18.8839 89.2995L18.7965 89.2567C19.1142 89.7922 19.7886 90.2421 20.2969 90.4209L20.2327 90.454C20.4601 90.6891 21.0558 91.1808 21.4824 91.3023C21.9935 91.9748 20.9693 92.379 21.9508 92.6239C22.6378 93.1244 23.3521 92.9611 23.2005 92.6006C23.7379 93.1331 24.4239 93.5539 25.073 93.9912C25.7572 94.3809 26.4248 94.7618 26.8912 95.3312C27.141 95.3371 27.0652 95.1991 27.4821 95.3662C29.2565 96.715 31.7355 97.1708 33.0376 98.5284C32.4089 98.37 32.8744 98.7927 32.817 98.9627C33.3991 98.9491 33.2981 99.4729 33.6557 99.1075C33.7159 98.8238 33.8073 98.7373 33.2835 98.3913C34.5594 98.7295 36.4222 99.3864 37.0208 99.8947C36.7195 99.6449 37.012 99.6624 37.3045 99.6799C37.0723 100.077 37.9653 100.486 38.7282 100.484L38.9041 100.246L39.2889 100.634C39.5853 100.621 39.7378 100.159 40.3714 100.592C40.3812 100.704 40.3967 100.818 40.5065 100.927C41.3034 100.874 42.384 100.856 43.1537 101.167L43.7445 101.658C44.1012 101.668 44.7202 101.52 44.1323 101.315C45.4714 101.761 46.3615 101.93 46.7638 102.338C49.2689 101.724 52.6925 101.895 55.4775 101.698L55.4095 101.906C56.1713 102.06 55.7719 101.531 56.3025 101.647C56.0742 101.853 56.9099 102.039 56.3385 102.308C57.4434 102.491 57.6912 101.834 58.3665 101.645C58.4375 101.363 57.8331 101.899 57.9263 101.543C58.0313 101.43 59.417 101.524 59.521 101.099C59.8077 101.215 59.6493 101.542 59.5298 101.725L60.1497 101.433C61.0331 101.777 58.4531 102.548 59.3762 102.996L59.9826 102.838C60.6405 103.167 58.4142 103.562 59.9933 103.468C60.6434 103.167 61.1108 102.501 60.4879 102.414C61.8474 102.077 60.9631 101.403 62.4149 101.142C62.6355 101.207 62.3537 101.301 62.0544 101.396C61.7522 101.469 61.4354 101.554 61.6084 101.697C62.3761 101.947 62.9407 101.199 63.5704 101.177C62.8668 101.201 63.342 100.655 63.7492 100.474C64.5198 100.473 63.3692 100.968 64.408 100.743C64.5227 100.471 65.4148 100.062 64.5616 100.113C64.7899 99.5069 65.6635 99.9821 66.1028 99.4457C66.5488 99.7158 65.2894 100.544 66.4779 100.432C66.2106 100.173 67.6984 99.5108 66.9531 99.2056C67.4088 99.1483 67.5449 99.399 67.301 99.7236C67.9909 99.7051 68.5662 98.5604 69.0093 99.158L69.0919 98.7363C69.3242 98.7781 69.6293 98.7625 70.0171 98.8325C70.2901 98.7363 70.6788 98.4622 71.0189 98.2795C71.3493 98.0745 71.6234 97.9443 71.7137 98.2125C71.8585 98.0784 73.0528 97.5303 72.4338 97.402C71.6078 97.541 71.705 98.0667 71.0918 97.7869C71.774 97.9258 72.1209 97.2281 72.4776 96.8977L72.636 97.059C72.8507 96.8627 73.4483 96.6256 73.4999 96.3448C73.3638 96.5469 73.528 96.6305 73.7506 96.5799L73.8652 96.1621C74.801 95.5265 74.3735 96.5673 75.3141 95.9852C75.3268 96.0066 74.6805 96.5828 74.6805 96.5828C74.8127 96.441 75.3238 96.5926 75.7223 96.2068C75.7553 95.8375 75.9089 95.3263 75.9429 95.0339C76.4025 94.6004 76.35 95.1806 76.7115 94.6004L76.2111 95.3244C76.1557 95.4731 76.9214 95.4682 77.6367 95.0251C78.0438 94.6578 78.5132 93.8687 77.7105 94.1651C78.0633 93.9465 78.6609 93.7958 78.4967 94.1496C79.2488 93.5743 78.2168 93.9445 78.8086 93.3712C79.2002 93.3624 80.1769 92.9562 80.8581 92.8153L80.4587 93.7366L80.9222 93.3935C80.5558 94.168 81.4052 93.413 81.3138 94.0077C81.6714 93.8221 81.9756 93.4159 82.2166 93.0991C80.8872 93.2507 82.6898 91.5948 82.0358 91.3159C83.1689 90.2771 83.7549 91.8611 84.3525 90.0507C84.0503 90.109 84.3039 89.2441 83.7005 90.0342C84.4585 89.4365 83.7714 89.1343 84.7772 88.5658C84.3263 89.318 85.8753 88.4123 85.2184 89.5016C85.1406 89.2956 84.6071 89.8476 84.506 90.0186C84.9599 89.9224 84.8559 90.5366 85.6022 89.8583C86.0171 89.4016 86.6332 88.8272 86.3193 88.6795C86.055 88.4444 85.6546 89.3325 85.6984 88.8136C86.5176 87.9293 87.0248 88.1412 86.9121 87.3317C86.4428 87.9381 86.0404 87.803 85.8782 87.6183C85.8976 87.6368 86.3728 86.8798 86.3728 86.8798L86.4272 87.1684C87.4913 86.2453 86.3981 86.5679 87.3524 85.6097L88.1239 85.4484C88.2007 85.9557 86.6595 86.7972 87.295 87.0615C87.9179 86.4163 87.8703 85.9761 88.5632 85.4669C88.4787 85.6427 88.3183 85.842 88.2377 86.0188C88.466 85.8002 89.3338 86.1238 89.8187 84.843C90.0811 84.2007 89.7488 84.5602 89.5768 84.396C90.3765 83.1997 90.4348 82.709 90.9528 81.952C91.2219 82.3835 91.9653 80.677 91.7496 81.7732C91.2394 81.9909 90.0296 83.6555 90.0733 84.3532C90.4494 84.3182 90.2638 84.5339 90.016 84.8352C89.7419 85.1151 89.3931 85.4659 89.5029 85.7691C90.3065 84.9178 90.6845 85.2997 91.0781 85.3745C91.2958 85.1248 91.3696 84.773 91.4415 84.5806C91.2559 84.2589 91.0042 84.6059 90.7156 84.4047C91.5708 83.4145 92.1772 82.2872 92.3317 81.5284C92.7301 81.2777 92.9293 81.577 92.6455 82.0114C93.5104 80.7141 94.3073 79.2545 95.1994 78.0601C94.2257 78.6024 95.9351 76.586 95.1897 76.9193C94.6854 77.5403 93.9847 77.9056 93.9935 77.4197C94.2763 77.0242 94.1966 77.5538 94.4055 77.4382C94.4735 76.7725 95.3248 76.8406 95.1566 76.0622C94.7106 77.4061 95.6357 76.6278 95.9107 77.0641C96.141 76.0204 96.1653 77.2497 96.6085 76.3275C96.8407 75.2858 97.2148 74.072 97.621 73.0119C98.5083 71.8321 98.8766 69.6126 99.3012 68.4213C99.6802 67.8402 100.037 68.4222 100.301 67.7342C100.506 66.8985 99.6306 68.2036 100.165 67.0346L100.229 67.1794C100.213 66.7819 101.136 64.9939 100.54 64.475L100.964 64.9725C101.07 64.7519 101.006 64.5109 101 64.3098C101.171 64.3379 101.395 64.0999 101.409 64.5022C102.008 63.8171 101.637 62.8482 101.778 62.0057L101.384 62.4975C101.351 61.0107 101.837 60.0943 101.902 58.6766L102.208 58.7495L102.066 57.8895C102.353 58.1217 102.586 57.356 102.358 56.8924C102.358 56.8924 102.519 57.458 102.68 58.0236C102.761 58.3102 102.84 58.5959 102.901 58.8107C102.968 59.0264 102.981 59.1683 102.981 59.1683C102.721 59.7621 102.692 58.4609 102.341 58.8146C102.048 59.1129 101.917 60.417 102.184 60.6716C102.294 60.176 102.232 60.141 102.181 59.7407C102.633 59.625 102.499 60.3859 102.727 60.8047C102.75 60.5375 102.937 60.176 102.81 60.1022C102.94 60.6483 102.891 61.1828 102.768 62.0564C102.694 61.4403 102.457 62.3333 102.37 62.0894C102.733 62.2177 102.724 63.0758 102.447 64.1321C101.827 64.7909 102.213 66.1757 101.778 67.3808C101.537 66.7822 101.4 66.0767 101.438 65.308C101.056 66.0184 101.232 66.1554 100.849 66.8628C101.032 67.303 101.387 67.683 101.293 68.7364L101.01 68.7072C100.868 69.6392 101.235 69.7635 100.759 70.8684C100.341 71.8101 99.9513 72.7731 99.5947 73.6835C99.1555 74.5581 98.7454 75.3793 98.3955 76.078L98.1166 76.008C98.2002 76.5289 97.9339 77.2101 97.6152 77.9029C97.2945 78.5968 96.8096 79.242 96.6357 79.8183C96.0001 80.6025 95.4958 81.5607 95.0294 82.408C94.5095 83.2175 93.9983 83.8919 93.5027 84.1591C93.0178 84.8957 92.5485 85.6109 92.0859 86.3145C91.5854 86.9918 91.0412 87.6186 90.5107 88.2639C89.9743 88.9043 89.4252 89.5427 88.8528 90.1851C88.2358 90.7827 87.5711 91.3619 86.8792 91.9614L87.0551 91.2472C86.7781 91.908 86.5828 91.357 86.1523 91.8293C86.9142 91.5815 85.782 92.7427 85.6052 93.2422C84.168 94.0585 82.6674 95.5161 81.6734 96.6474L81.4683 96.4482C80.5432 97.7018 78.7542 98.1954 77.1703 99.07C76.94 99.0885 76.5143 98.9893 76.045 99.2527C75.3677 100.085 74.8847 100.284 73.6904 101.175C72.7527 101.696 71.0599 102.138 69.9919 102.35C69.1018 102.821 68.2077 103.332 67.238 103.629C66.2731 103.938 65.2877 104.214 64.2955 104.481L62.8039 104.878L61.2753 105.141C60.254 105.323 59.2317 105.526 58.2045 105.779L57.8702 105.493C56.8838 105.769 55.8139 105.883 54.7227 105.994C53.6304 106.065 52.5148 106.218 51.4198 106.099C49.2294 105.923 47.1148 105.891 45.3803 105.719L45.7826 105.206C44.7438 104.871 43.328 104.983 43.5301 105.421C43.0053 105.249 42.3183 105.222 41.6886 105.146C41.0686 105.022 40.5031 104.872 40.2212 104.56C39.1678 104.181 38.8355 104.475 37.9113 104.315C36.8443 103.961 36.1408 103.65 35.4372 103.383C34.7327 103.123 34.0291 102.908 33.0175 102.593L33.4966 102.805C33.76 102.77 33.863 102.549 33.3849 102.336C32.9923 102.268 32.3188 102.006 31.83 101.819C31.3471 101.617 31.0099 101.557 31.2266 102.037C30.2859 101.368 29.0712 100.873 27.8594 100.356C26.6476 99.8484 25.5466 99.1254 24.7344 98.3548C24.7975 98.6094 24.3039 98.3519 24.0366 98.3334C23.612 98.0759 23.1893 97.798 22.7831 97.5074C22.4002 97.1829 22.0192 96.8593 21.649 96.5463C20.9046 95.9234 20.1816 95.3637 19.4489 95.01C19.2536 94.7476 20.0456 95.0644 19.4139 94.5669C18.9893 94.3346 19.2507 94.7505 18.7191 94.4726C17.414 93.5242 16.2557 92.3522 15.1664 91.1928C14.1519 89.9548 13.2423 88.6877 12.2239 87.6428C8.62843 83.8744 5.87925 79.104 3.84056 74.5609L3.98925 74.558C2.86783 73.2014 3.1273 70.7185 1.91939 69.7254C1.89801 69.3172 1.58608 68.2483 1.90093 68.463C1.55789 67.8722 1.4092 66.9442 1.23235 65.9569C1.14489 65.4623 1.04869 64.9521 0.917507 64.4565C0.8145 63.9551 0.709548 63.4575 0.518104 63.0047C0.531708 63.1816 0.575439 63.2768 0.66484 63.4673C0.66484 62.4839 0.500608 61.5937 0.330538 60.684C0.245995 60.2302 0.15951 59.7715 0.0934309 59.2993C0.0419276 58.826 0.0642772 58.3324 0.0992614 57.8202C0.167286 58.0224 0.230449 58.3926 0.368433 58.4402C0.589024 57.6443 -0.300143 56.6191 0.333449 56.1537C0.304296 55.7066 -0.0124907 55.8475 0.0215164 56.1245C-0.0591404 53.8924 0.111889 51.6038 0.126467 49.2716C0.0885692 48.1016 0.324709 46.9481 0.409247 45.7761C0.566672 44.6158 0.575417 43.4215 0.881513 42.2943C2.09234 39.1496 2.00293 42.3613 2.18271 39.7046C2.3586 39.5335 1.97962 39.4869 2.11955 39.4888C2.15842 38.9738 2.43342 38.6434 2.67637 38.349C2.94848 38.0633 3.19432 37.8155 3.14961 37.4336C2.66859 37.5784 3.0952 36.9253 2.87072 36.8262C3.83083 35.0109 4.25257 34.7573 4.58978 33.1752L4.7336 33.3676C5.02513 31.4591 6.15334 29.5913 6.38268 27.9024C11.4243 18.7784 18.733 11.2501 27.849 6.42143C28.9995 5.87918 30.1472 5.3379 31.293 4.79859C32.46 4.31271 33.6631 3.91428 34.8437 3.46629C35.4384 3.25639 36.0253 3.01636 36.6269 2.82784L38.4577 2.34585C39.684 2.04946 40.89 1.65493 42.1358 1.44599C44.6322 1.05437 47.1296 0.597628 49.6825 0.596658C52.2237 0.386757 54.7784 0.677313 57.339 0.885281C59.6722 1.72101 59.817 1.78514 62.4659 1.94547C62.3435 2.01836 62.1773 2.01252 62.3347 2.12233C62.5631 1.64713 64.149 2.47606 64.4901 2.11942C66.318 2.65194 68.1167 3.00664 69.83 3.6927C70.6997 3.99882 71.5714 4.30687 72.4558 4.61881C73.3488 4.91519 74.1816 5.3904 75.0746 5.79368C74.4935 5.56823 74.062 5.77522 74.7316 6.06382L75.5498 6.13379L75.6071 6.3019C76.0882 6.45836 76.6858 6.4982 76.2825 6.14059C76.8451 6.39518 77.4253 6.62162 77.9685 6.91218L79.5661 7.84314C80.6127 8.49131 81.7059 9.06951 82.6834 9.81291L85.5841 12.0713C86.5695 12.7953 87.377 13.7301 88.2701 14.5522C90.0844 16.179 91.5449 18.134 93.1366 19.9376L95.256 22.8617C95.6039 23.3505 95.979 23.8218 96.3104 24.3213L97.2549 25.8538C97.7379 26.8945 98.5406 28.0218 99.1664 29.2811C99.8214 30.5269 100.488 31.7942 101.066 32.8923C103.386 39.9231 104.196 46.4309 104.674 53.7754C104.654 53.7812 103.427 52.8143 103.005 49.8903L103.004 49.8904Z" fill="#AA9A78"/>
</svg>
